<svg width="100" height="100" viewBox="0 0 100 100" fill="none" xmlns="http://www.w3.org/2000/svg">
<path d="M74.9249 78.0208C72.013 74.1666 68.2462 71.0409 63.921 68.8899C59.5959 66.7389 54.8304 65.6212 49.9999 65.625C45.1693 65.6212 40.4039 66.7389 36.0787 68.8899C31.7535 71.0409 27.9867 74.1666 25.0749 78.0208M74.9249 78.0208C80.6061 72.9675 84.617 66.3065 86.4256 58.9212C88.2342 51.5359 87.7551 43.7754 85.0518 36.6687C82.3485 29.5619 77.5487 23.4449 71.289 19.1287C65.0293 14.8126 57.6055 12.5012 50.002 12.5012C42.3985 12.5012 34.9746 14.8126 28.7149 19.1287C22.4552 23.4449 17.6554 29.5619 14.9521 36.6687C12.2488 43.7754 11.7697 51.5359 13.5783 58.9212C15.3869 66.3065 19.3936 72.9675 25.0749 78.0208M74.9249 78.0208C68.0658 84.1369 59.1897 87.5115 49.9999 87.5C40.8086 87.5125 31.935 84.1378 25.0749 78.0208M62.4999 40.625C62.4999 43.9402 61.1829 47.1196 58.8387 49.4638C56.4945 51.808 53.3151 53.125 49.9999 53.125C46.6847 53.125 43.5052 51.808 41.161 49.4638C38.8168 47.1196 37.4999 43.9402 37.4999 40.625C37.4999 37.3098 38.8168 34.1304 41.161 31.7862C43.5052 29.442 46.6847 28.125 49.9999 28.125C53.3151 28.125 56.4945 29.442 58.8387 31.7862C61.1829 34.1304 62.4999 37.3098 62.4999 40.625Z" stroke="#253017" stroke-width="1.5" stroke-linecap="round" stroke-linejoin="round"/>
</svg>
